<svg width="151.5125px" height="167.20000610351562px" xmlns="http://www.w3.org/2000/svg" viewBox="174.24375 -8.60000305175781 151.5125 167.20000610351562" style="background: rgba(0, 0, 0, 0);" preserveAspectRatio="xMidYMid"><defs><linearGradient id="editing-sticker-gradient" x1="0.5" y1="0.2" x2="0.5" y2="0.8"><stop offset="0" stop-color="#fd9"></stop><stop offset="1" stop-color="#9df"></stop></linearGradient><filter id="editing-sticker" x="-100%" y="-100%" width="300%" height="300%"><feMorphology operator="erode" radius="1" in="SourceAlpha" result="alpha-erode"></feMorphology><feConvolveMatrix order="3,3" divisor="1" kernelMatrix="0 1 0 1 1 1 0 1 0" in="alpha-erode" result="alpha-round"></feConvolveMatrix><feMorphology operator="dilate" radius="3.5" in="alpha-round" result="dilate-shadow"></feMorphology><feGaussianBlur in="dilate-shadow" stdDeviation="1.5" result="shadow"></feGaussianBlur><feFlood flood-color="#fff" result="flood-sticker"></feFlood><feComposite operator="in" in="flood-sticker" in2="alpha-round" result="comp-sticker"></feComposite><feMorphology operator="dilate" radius="3" in="comp-sticker" result="morph-sticker"></feMorphology><feConvolveMatrix order="3,3" divisor="1" kernelMatrix="0 1 0 1 1 1 0 1 0" in="morph-sticker" result="sticker"></feConvolveMatrix><feMerge><feMergeNode in="shadow"></feMergeNode><feMergeNode in="sticker"></feMergeNode><feMergeNode in="SourceGraphic"></feMergeNode></feMerge></filter></defs><g filter="url(#editing-sticker)"><g transform="translate(201.32498979568481, 106.42999649047852)"><path d="M2.16 0L2.16-2.95L2.16-2.95Q2.16-7.20 3.49-10.80L3.49-10.80L3.49-10.80Q4.82-14.40 6.77-17.28L6.77-17.28L6.77-17.28Q8.71-20.16 11.88-24.05L11.88-24.05L11.88-24.05Q15.12-28.08 17.03-30.89L17.03-30.89L17.03-30.89Q18.94-33.70 20.27-37.33L20.27-37.33L20.27-37.33Q21.60-40.97 21.60-45.22L21.60-45.22L21.60-45.22Q21.60-47.74 20.88-49.14L20.88-49.14L20.88-49.14Q20.16-50.54 18.29-50.54L18.29-50.54L18.29-50.54Q15.19-50.54 15.19-45.00L15.19-45.00L15.19-37.44L2.16-37.44L2.02-41.26L2.02-41.26Q2.02-48.31 3.46-52.85L3.46-52.85L3.46-52.85Q4.90-57.38 8.50-59.76L8.50-59.76L8.50-59.76Q12.10-62.14 18.43-62.14L18.43-62.14L18.43-62.14Q26.21-62.14 30.46-57.78L30.46-57.78L30.46-57.78Q34.70-53.42 34.70-45.43L34.70-45.43L34.70-45.43Q34.70-40.32 33.30-36.18L33.30-36.18L33.30-36.18Q31.90-32.04 29.84-28.94L29.84-28.94L29.84-28.94Q27.79-25.85 24.41-21.67L24.41-21.67L24.41-21.67Q21.96-18.72 20.34-16.42L20.34-16.42L20.34-16.42Q18.72-14.11 17.42-11.66L17.42-11.66L34.27-11.66L34.27 0L2.16 0ZM52.56 0.72L52.56 0.72Q44.42 0.72 40.68-3.56L40.68-3.56L40.68-3.56Q36.94-7.85 36.94-16.63L36.94-16.63L36.94-23.11L49.61-23.11L49.61-16.63L49.61-16.63Q49.61-13.82 50.33-12.28L50.33-12.28L50.33-12.28Q51.05-10.73 53.21-10.73L53.21-10.73L53.21-10.73Q54.72-10.73 55.40-11.81L55.40-11.81L55.40-11.81Q56.09-12.89 56.23-14.36L56.23-14.36L56.23-14.36Q56.38-15.84 56.38-18.65L56.38-18.65L56.38-20.16L56.38-20.16Q56.38-28.15 51.12-28.15L51.12-28.15L51.12-28.15Q50.18-28.15 49.90-28.08L49.90-28.08L49.90-39.17L49.90-39.17Q53.21-39.17 54.86-40.64L54.86-40.64L54.86-40.64Q56.52-42.12 56.52-45.36L56.52-45.36L56.52-45.36Q56.52-50.62 53.50-50.62L53.50-50.62L53.50-50.62Q51.62-50.62 51.08-49.68L51.08-49.68L51.08-49.68Q50.54-48.74 50.36-47.30L50.36-47.30L50.36-47.30Q50.18-45.86 50.11-45.22L50.11-45.22L50.11-43.34L37.30-43.34L37.22-45.50L37.22-45.50Q37.30-54.00 41.26-58.00L41.26-58.00L41.26-58.00Q45.22-61.99 53.42-61.99L53.42-61.99L53.42-61.99Q69.19-61.99 69.19-45.50L69.19-45.50L69.19-45.50Q69.19-40.68 67.90-37.84L67.90-37.84L67.90-37.84Q66.60-34.99 63.43-33.84L63.43-33.84L63.43-33.84Q66.02-32.54 67.28-30.64L67.28-30.64L67.28-30.64Q68.54-28.73 68.94-25.99L68.94-25.99L68.94-25.99Q69.34-23.26 69.34-18.65L69.34-18.65L69.34-18.65Q69.34-9.07 65.34-4.18L65.34-4.18L65.34-4.18Q61.34 0.72 52.56 0.72L52.56 0.72ZM87.98-10.58L79.85-10.58L79.85-17.93L72.58-17.93L72.58-26.06L79.85-26.06L79.85-33.34L87.98-33.34L87.98-26.06L95.33-26.06L95.33-17.93L87.98-17.93L87.98-10.58Z" fill="url(#editing-sticker-gradient)" stroke="#000" stroke-width="2.5"></path></g></g><style>text {
  font-size: 64px;
  font-family: Arial Black;
  dominant-baseline: central;
  text-anchor: middle;
}</style></svg>